<svg viewBox="0 0 431.24 341.97" xmlns="http://www.w3.org/2000/svg"><circle cx="313.93" cy="245.99" fill="#c9def2" r="95.98"/><circle cx="342.01" cy="170.32" fill="none" r="13.36" stroke="#1384ff" stroke-miterlimit="10"/><circle cx="355.37" cy="295.62" fill="none" r="15.27" stroke="#1384ff" stroke-miterlimit="10"/><path d="M277.69 334.87a39.14 39.14 0 0 0-53.83-55.7" fill="none" stroke="#1384ff" stroke-miterlimit="10"/><circle cx="376.79" cy="238.11" fill="#79b7ff" r="15.75"/><path d="M359.64 325a28.61 28.61 0 0 0-27.15 15.18 95.64 95.64 0 0 0 34-13.86 29 29 0 0 0-6.85-1.32z" fill="#79b7ff"/><circle cx="300.31" cy="281.42" fill="#79b7ff" r="4.77"/><circle cx="350.05" cy="252.15" fill="#79b7ff" r="3.93"/><circle cx="103.91" cy="103.91" fill="#f8d44f" r="103.91"/><circle cx="103.91" cy="103.91" fill="#f1c639" r="80.69"/><path d="M338.34 86.89v192.56H87.41V86.89z" fill="#76b6ff"/><path d="M338.34 86.89v192.56H87.41V86.89z" fill="#76b6ff"/><path d="M104.44 103.91h216.88v158.51H104.44z" fill="#c6dfff"/><circle cx="119" cy="119.88" fill="#76b6ff" r="4.2"/><circle cx="154.01" cy="119.88" fill="#76b6ff" r="4.2"/><circle cx="136.5" cy="119.88" fill="#76b6ff" r="4.2"/><path d="M104.44 133.77h216.88" fill="none" stroke="#03254d" stroke-miterlimit="10" stroke-width=".75"/><path d="M204.77 269.02h18.87v4.49h-18.87z" fill="none" stroke="#1384ff" stroke-miterlimit="10"/><path d="M342.49 57.44c-6.48 0-5.09-7.85-11.77-7.85s-6.53 7.85-12.82 7.85-6.69-7.85-12.81-7.85-6.3 7.85-12.82 7.85-6.47-7.85-12.75-7.85M95.37 234.85c-6.47 0-5.09-7.84-11.77-7.84s-6.52 7.84-12.81 7.84S64.1 227 58 227s-6.3 7.84-12.81 7.84S38.68 227 32.41 227m369.74 110.44c0-3.84 4.66-3 4.66-7s-4.66-3.87-4.66-7.61 4.66-4 4.66-7.61-4.66-3.74-4.66-7.61 4.66-3.85 4.66-7.58" fill="none" stroke="#03254d" stroke-miterlimit="10" stroke-width=".75"/><circle cx="23.21" cy="295.62" fill="none" r="19.42" stroke="#03254d" stroke-miterlimit="10" stroke-width=".75"/><path d="M426.47 111.07h-7.23l-3.61 6.26 3.61 6.26h7.23l3.61-6.26zM66.726 322.854l7.686-7.687 7.687 7.687-7.687 7.686z" fill="none" stroke="#76b6ff" stroke-miterlimit="10" stroke-width="2"/><circle cx="66.04" cy="109.16" fill="#c6defd" r="29.46"/><circle cx="359.71" cy="109.16" fill="#f8d44f" r="29.46"/><path d="M359.71 88v21.16l15.27 15.26" fill="none" stroke="#03254d" stroke-miterlimit="10" stroke-width=".75"/><path d="M148.14 184.2l-13.55 13-43.88-56.66c-2.85-2.78-6.06-5.1-9.54-6.07-6.55-1.83-11 2.34-18.85.73-3.65-.75-3.61-5.21-4.72-6.27s-2.31-.71-2.64 1a6.55 6.55 0 0 0 .27 4.29c-2-.9-1.76-2.61-1.35-4.24a3.11 3.11 0 0 0-1.4-3.48c-1.68-1-3 .66-3.34 2.29a8.67 8.67 0 0 0-.14 4.61c-1.43-1.14-1.53-2.24-1.84-3.75-.48-2.25-1.54-3.08-3.53-2s.28 7.93 2.9 10.83 6.24 4.71 9.89 6.1a62.64 62.64 0 0 0 14 3.55c5.11.69 12.27 1.88 14 5.07l31.22 64.15a23.1 23.1 0 0 0 33.36 9.27l11.93-7.82" fill="#0062d8" fill-rule="evenodd"/><path d="M66 140.05s-10.28-1.49-11.41-6.72m6.51 9.06s-10.1-.61-12.1-9.06" fill="none" stroke="#03254d" stroke-miterlimit="10" stroke-width=".75"/><path d="M277.86 184.2l13.56 13 43.88-56.69c2.85-2.78 6.05-5.1 9.54-6.07 6.55-1.83 11 2.34 18.85.73 3.65-.75 3.61-5.21 4.72-6.27s2.31-.71 2.63 1a6.62 6.62 0 0 1-.26 4.29c2.05-.9 1.76-2.61 1.35-4.24a3.11 3.11 0 0 1 1.4-3.48c1.68-1 3 .66 3.34 2.29a8.77 8.77 0 0 1 .17 4.57c1.43-1.14 1.52-2.24 1.84-3.75.48-2.25 1.54-3.08 3.53-2s-.28 7.93-2.9 10.83-6.24 4.71-9.89 6.1a62.64 62.64 0 0 1-14 3.55c-5.11.69-12.27 1.88-14 5.07l-31.17 64.27a23.1 23.1 0 0 1-33.45 9.22l-11.9-7.82" fill="#0062d8" fill-rule="evenodd"/><path d="M360 140.05s10.27-1.49 11.4-6.72m-6.49 9.06s10.08-.61 12.13-9.06m-83.96 61.75a58 58 0 0 0-5.94 9" fill="none" stroke="#03254d" stroke-miterlimit="10" stroke-width=".75"/><circle cx="66.04" cy="109.16" fill="#79b6fd" r="20.31"/><path d="M277.88 184.14c-9.69-10.69-24.88-23.46-45.57-26.41h-.5a7.09 7.09 0 0 0-1.19-.28l-18 .13-17.26-.13a7.09 7.09 0 0 0-1.19.28h-.5c-20.69 3-35.88 15.72-45.57 26.41-3.88 6 6.56 33.14 12.77 34.6 4.05-2.74 7.25-4.66 10-7.24-.56 15-3.13 51.06-3.13 51.06h90.53s-2.57-36.09-3.13-51.06c2.71 2.58 5.91 4.5 10 7.24 6.18-1.46 16.62-28.56 12.74-34.6z" fill="#f76a00"/><path d="M240.48 112.76c0-16.62-10.24-30.37-23.57-32.71 5.47-2.23 9.4-8.43 9.4-15.74 0-9.19-6.21-16.64-13.87-16.64s-13.88 7.45-13.88 16.64c0 7.43 4.07 13.72 9.68 15.86-13 2.64-23 16.22-23 32.59 0 14.57 7.88 26.93 18.8 31.34-.65 4.61-3.71 10.66-6.3 13.09a2.9 2.9 0 0 0 .26 1c2.22 4.59 8 6 13.09 6.42a27.53 27.53 0 0 0 10.32-.78 12.5 12.5 0 0 0 7.83-6.39 16.48 16.48 0 0 1-8.41-11.44c-.09-.48-.15-1-.21-1.47 11.47-4.05 19.86-16.73 19.86-31.77z" fill="#0062d8"/><path d="M207.88 80.95h9.32m28.8 45.31v5a5.9 5.9 0 0 1-5.9 5.9h-22.43m-37.86-29.27c2.21-18.25 16.4-32.28 33.51-32 16.62.24 30.15 14.18 32.55 31.93" fill="none" stroke="#03254d" stroke-miterlimit="10" stroke-width=".75"/><rect fill="none" height="4.94" rx="2.47" stroke="#03254d" stroke-miterlimit="10" stroke-width=".75" width="9.32" x="208.35" y="134.71"/><rect fill="none" height="18.38" rx="3.49" stroke="#03254d" stroke-miterlimit="10" stroke-width=".75" width="6.98" x="176.02" y="107.87"/><rect fill="none" height="18.38" rx="3.49" stroke="#03254d" stroke-miterlimit="10" stroke-width=".75" width="6.98" x="242.75" y="107.87"/><path d="M132.93 195.08a58 58 0 0 1 5.94 9m47.23-91.14a23.1 23.1 0 0 0 6.12-7.42c1.34-2.59 2.46-5.71 5.15-6.82a10 10 0 0 1 3.9-.48l20.82.23a11.18 11.18 0 0 1 3.74.47c3.11 1.16 4.48 4.69 5.9 7.69s4.08 6.21 7.35 5.63M77.96 107.89l-12.07 1.54-10.08 10.45" fill="none" stroke="#03254d" stroke-miterlimit="10" stroke-width=".75"/><circle cx="65.89" cy="109.16" r="20.31" stroke-linecap="round" stroke-dasharray="3 5" stroke="#03254d" stroke-width=".75" fill="none" stroke-miterlimit="10"/><g fill="#10264c"><path d="M160 185.28h-.17a.83.83 0 1 1 0-1.66h.17a.83.83 0 0 1 0 1.66zm14.2 0h-.2a.83.83 0 0 1 0-1.66h.17a.83.83 0 0 1 0 1.66zm14.22 0h-.17a.83.83 0 1 1 0-1.66h.17a.83.83 0 0 1 0 1.66zM160 202.06h-.17a.83.83 0 1 1 0-1.66h.17a.83.83 0 0 1 0 1.66zm14.2 0h-.2a.83.83 0 1 1 0-1.66h.17a.83.83 0 0 1 0 1.66zm14.22 0h-.17a.83.83 0 0 1 0-1.66h.17a.83.83 0 0 1 0 1.66zm-36.03-8.39h-.17a.83.83 0 1 1 0-1.66h.17a.83.83 0 0 1 0 1.66zm14.21 0h-.16a.83.83 0 0 1 0-1.66h.16a.83.83 0 0 1 0 1.66zm14.22 0h-.17a.83.83 0 1 1 0-1.66h.17a.83.83 0 1 1 0 1.66zm14.18 0h-.17a.83.83 0 1 1 0-1.66h.17a.83.83 0 0 1 0 1.66zm-20.8-25.18h-.2a.83.83 0 1 1 0-1.65h.17a.83.83 0 1 1 0 1.65zm14.22 0h-.17a.83.83 0 1 1 0-1.65h.17a.83.83 0 0 1 0 1.65z"/><path d="M160 185.28h-.17a.83.83 0 1 1 0-1.66h.17a.83.83 0 0 1 0 1.66zm-8-5.11a.82.82 0 0 1 .15 1.16.83.83 0 0 1-1.16.15l-.14-.11m9.76-8.8a.83.83 0 0 1-.1 1.17l-.13.11a.83.83 0 0 1-1.17-.1M181 160.94a.84.84 0 0 1-.43 1.1l-.16.06a.82.82 0 0 1-1.09-.42m-5.12 23.6h-.2a.83.83 0 0 1 0-1.66h.17a.83.83 0 0 1 0 1.66zm14.22 0h-.17a.83.83 0 1 1 0-1.66h.17a.83.83 0 0 1 0 1.66zM195 161.1h-.17a.83.83 0 1 1 0-1.65h.17a.83.83 0 1 1 0 1.65zm-28.4 15.79h-.16a.83.83 0 1 1 0-1.66h.16a.83.83 0 1 1 0 1.66zm14.22 0h-.17a.83.83 0 1 1 0-1.66h.17a.83.83 0 1 1 0 1.66zm14.18 0h-.17a.83.83 0 1 1 0-1.66h.17a.83.83 0 0 1 0 1.66zm-20.8-8.4h-.2a.83.83 0 1 1 0-1.65h.17a.83.83 0 1 1 0 1.65zm14.22 0h-.17a.83.83 0 1 1 0-1.65h.17a.83.83 0 0 1 0 1.65zm14.21 0h-.17a.83.83 0 0 1 0-1.65h.17a.83.83 0 1 1 0 1.65z"/><path d="M174.2 185.28h-.2a.83.83 0 0 1 0-1.66h.17a.83.83 0 0 1 0 1.66zm14.22 0h-.17a.83.83 0 1 1 0-1.66h.17a.83.83 0 0 1 0 1.66zm14.21 0h-.17a.83.83 0 0 1 0-1.66h.17a.83.83 0 0 1 0 1.66zM195 161.1h-.17a.83.83 0 1 1 0-1.65h.17a.83.83 0 1 1 0 1.65zm-14.18 15.79h-.17a.83.83 0 1 1 0-1.66h.17a.83.83 0 1 1 0 1.66zm14.18 0h-.17a.83.83 0 1 1 0-1.66h.17a.83.83 0 0 1 0 1.66zm14.26 0h-.17a.83.83 0 1 1 0-1.66h.17a.83.83 0 0 1 0 1.66z"/><path d="M174.2 185.28h-.2a.83.83 0 0 1 0-1.66h.17a.83.83 0 0 1 0 1.66zm14.22 0h-.17a.83.83 0 1 1 0-1.66h.17a.83.83 0 0 1 0 1.66zm14.21 0h-.17a.83.83 0 0 1 0-1.66h.17a.83.83 0 0 1 0 1.66zm-28.43 16.78h-.2a.83.83 0 1 1 0-1.66h.17a.83.83 0 0 1 0 1.66zm14.22 0h-.17a.83.83 0 0 1 0-1.66h.17a.83.83 0 0 1 0 1.66zm14.21 0h-.17a.83.83 0 0 1 0-1.66h.17a.83.83 0 0 1 0 1.66zm-21.81-8.39h-.17a.83.83 0 1 1 0-1.66h.17a.83.83 0 1 1 0 1.66zm14.18 0h-.17a.83.83 0 1 1 0-1.66h.17a.83.83 0 0 1 0 1.66zm14.26 0h-.17a.83.83 0 1 1 0-1.66h.17a.83.83 0 1 1 0 1.66zm-35.06 41.26h-.2a.83.83 0 1 1 0-1.66h.17a.83.83 0 0 1 0 1.66zm14.22 0h-.17a.83.83 0 1 1 0-1.66h.17a.83.83 0 0 1 0 1.66zm-14.22 16.78h-.2a.83.83 0 1 1 0-1.65h.17a.83.83 0 1 1 0 1.65zm14.22 0h-.17a.83.83 0 1 1 0-1.65h.17a.83.83 0 0 1 0 1.65zm-7.6-8.39h-.17a.83.83 0 1 1 0-1.66h.17a.83.83 0 0 1 0 1.66zm14.18 0h-.17a.83.83 0 1 1 0-1.66h.17a.83.83 0 0 1 0 1.66zm-14.18 16.78h-.17a.83.83 0 1 1 0-1.65h.17a.83.83 0 1 1 0 1.65zm14.18 0h-.17a.83.83 0 1 1 0-1.65h.17a.83.83 0 1 1 0 1.65zm-35-43.95h-.17a.83.83 0 1 1 0-1.66h.17a.83.83 0 0 1 0 1.66zm14.2 2h-.2a.83.83 0 1 1 0-1.66h.17a.83.83 0 0 1 0 1.66zm14.22 0h-.17a.83.83 0 1 1 0-1.66h.17a.83.83 0 0 1 0 1.66z"/><path d="M174.2 234.93h-.2a.83.83 0 1 1 0-1.66h.17a.83.83 0 0 1 0 1.66zm14.22 0h-.17a.83.83 0 1 1 0-1.66h.17a.83.83 0 0 1 0 1.66zm-21.82-25.17h-.16a.83.83 0 0 1 0-1.66h.16a.83.83 0 0 1 0 1.66zm14.22 0h-.17a.83.83 0 1 1 0-1.66h.17a.83.83 0 0 1 0 1.66zm14.18 0h-.17a.83.83 0 1 1 0-1.66h.17a.83.83 0 1 1 0 1.66zm-14.18 16.78h-.17a.83.83 0 1 1 0-1.66h.17a.83.83 0 0 1 0 1.66zm14.18 0h-.17a.83.83 0 1 1 0-1.66h.17a.83.83 0 0 1 0 1.66z"/><path d="M174.2 234.93h-.2a.83.83 0 1 1 0-1.66h.17a.83.83 0 0 1 0 1.66zm14.22 0h-.17a.83.83 0 1 1 0-1.66h.17a.83.83 0 0 1 0 1.66zm14.21 0h-.17a.83.83 0 0 1 0-1.66h.17a.83.83 0 0 1 0 1.66zm-28.43 16.78h-.2a.83.83 0 1 1 0-1.65h.17a.83.83 0 1 1 0 1.65zm14.22 0h-.17a.83.83 0 1 1 0-1.65h.17a.83.83 0 0 1 0 1.65zm14.21 0h-.17a.83.83 0 0 1 0-1.65h.17a.83.83 0 1 1 0 1.65zm-21.81-8.39h-.17a.83.83 0 1 1 0-1.66h.17a.83.83 0 0 1 0 1.66zm14.18 0h-.17a.83.83 0 1 1 0-1.66h.17a.83.83 0 0 1 0 1.66zm14.26 0h-.17a.83.83 0 1 1 0-1.66h.17a.83.83 0 0 1 0 1.66zm-28.44 16.78h-.17a.83.83 0 1 1 0-1.65h.17a.83.83 0 1 1 0 1.65zm14.18 0h-.17a.83.83 0 1 1 0-1.65h.17a.83.83 0 1 1 0 1.65zm14.26 0h-.17a.83.83 0 1 1 0-1.65h.17a.83.83 0 1 1 0 1.65zm-35.06-41.95h-.2a.83.83 0 1 1 0-1.66h.17a.83.83 0 0 1 0 1.66zm14.22 0h-.17a.83.83 0 1 1 0-1.66h.17a.83.83 0 0 1 0 1.66zm14.21 0h-.17a.83.83 0 0 1 0-1.66h.17a.83.83 0 0 1 0 1.66z"/><path d="M174.2 234.93h-.2a.83.83 0 1 1 0-1.66h.17a.83.83 0 0 1 0 1.66zm14.22 0h-.17a.83.83 0 1 1 0-1.66h.17a.83.83 0 0 1 0 1.66zm14.21 0h-.17a.83.83 0 0 1 0-1.66h.17a.83.83 0 0 1 0 1.66zm-21.81-25.17h-.17a.83.83 0 1 1 0-1.66h.17a.83.83 0 0 1 0 1.66zm14.18 0h-.17a.83.83 0 1 1 0-1.66h.17a.83.83 0 1 1 0 1.66zm14.26 0h-.17a.83.83 0 1 1 0-1.66h.17a.83.83 0 0 1 0 1.66zm-28.44 16.78h-.17a.83.83 0 1 1 0-1.66h.17a.83.83 0 0 1 0 1.66zm14.18 0h-.17a.83.83 0 1 1 0-1.66h.17a.83.83 0 0 1 0 1.66zm14.26 0h-.17a.83.83 0 1 1 0-1.66h.17a.83.83 0 0 1 0 1.66zm22.28-41.26h-.17a.83.83 0 0 1 0-1.66h.17a.83.83 0 0 1 0 1.66zm14.22 0h-.17a.83.83 0 1 1 0-1.66h.17a.83.83 0 0 1 0 1.66zm14.24 0h-.17a.83.83 0 0 1 0-1.66h.17a.83.83 0 0 1 0 1.66zm14.2 1h-.2a.83.83 0 0 1 0-1.66h.17a.83.83 0 0 1 0 1.66zm-42.66 15.78h-.17a.83.83 0 0 1 0-1.66h.17a.83.83 0 0 1 0 1.66zm14.22 0h-.17a.83.83 0 1 1 0-1.66h.17a.83.83 0 0 1 0 1.66zm14.24 0h-.17a.83.83 0 0 1 0-1.66h.17a.83.83 0 1 1 0 1.66zm14.2 0h-.2a.83.83 0 0 1 0-1.66h.17a.83.83 0 0 1 0 1.66zm-36.03-8.39H238a.83.83 0 1 1 0-1.66h.17a.83.83 0 0 1 0 1.66zm14.22 0h-.17a.83.83 0 1 1 0-1.66h.17a.83.83 0 0 1 0 1.66zm14.21 0h-.16a.83.83 0 1 1 0-1.66h.16a.83.83 0 1 1 0 1.66zm-35.06-25.18h-.17a.83.83 0 0 1 0-1.65h.17a.83.83 0 1 1 0 1.65zm14.22 0h-.17a.83.83 0 1 1 0-1.65h.17a.83.83 0 1 1 0 1.65z"/><path d="M231.54 185.28h-.17a.83.83 0 0 1 0-1.66h.17a.83.83 0 0 1 0 1.66zm14.22 0h-.17a.83.83 0 1 1 0-1.66h.17a.83.83 0 0 1 0 1.66zm14.24 0h-.17a.83.83 0 0 1 0-1.66h.17a.83.83 0 0 1 0 1.66zm14.2 1h-.2a.83.83 0 0 1 0-1.66h.17a.83.83 0 0 1 0 1.66zm-36.03-24.18H238a.83.83 0 1 1 0-1.65h.17a.83.83 0 1 1 0 1.65zm0 14.79H238a.83.83 0 1 1 0-1.66h.17a.83.83 0 0 1 0 1.66zm14.22 0h-.17a.83.83 0 1 1 0-1.66h.17a.83.83 0 1 1 0 1.66zm4.78-10.21a.83.83 0 0 1-.67 1h-.17a.83.83 0 0 1-.28-1.64h.16m10.39 11.85h-.16a.83.83 0 1 1 0-1.66h.16a.83.83 0 1 1 0 1.66zm-49.27-9.4h-.17a.83.83 0 1 1 0-1.65h.17a.83.83 0 0 1 0 1.65zm14.21 0h-.17a.83.83 0 0 1 0-1.65h.17a.83.83 0 1 1 0 1.65zm-14.21 16.79h-.17a.83.83 0 0 1 0-1.66h.17a.83.83 0 0 1 0 1.66z"/><path d="M231.54 185.28h-.17a.83.83 0 0 1 0-1.66h.17a.83.83 0 0 1 0 1.66zm6.63-23.18H238a.83.83 0 1 1 0-1.65h.17a.83.83 0 1 1 0 1.65zM224 176.89h-.17a.83.83 0 1 1 0-1.66h.17a.83.83 0 0 1 0 1.66zm14.17 0H238a.83.83 0 1 1 0-1.66h.17a.83.83 0 0 1 0 1.66zm-20.84 8.39h-.17a.83.83 0 0 1 0-1.66h.17a.83.83 0 0 1 0 1.66z"/><path d="M231.54 185.28h-.17a.83.83 0 0 1 0-1.66h.17a.83.83 0 0 1 0 1.66zm-14.21 16.78h-.17a.83.83 0 0 1 0-1.66h.17a.83.83 0 0 1 0 1.66zm14.21 0h-.17a.83.83 0 0 1 0-1.66h.17a.83.83 0 0 1 0 1.66zm-7.54-8.39h-.17a.83.83 0 1 1 0-1.66h.17a.83.83 0 0 1 0 1.66zm14.17 0H238a.83.83 0 1 1 0-1.66h.17a.83.83 0 0 1 0 1.66zm36.03-7.39h-.2a.83.83 0 0 1 0-1.66h.17a.83.83 0 0 1 0 1.66z"/><path d="M274.2 186.28h-.2a.83.83 0 0 1 0-1.66h.17a.83.83 0 0 1 0 1.66zm0 15.78h-.2a.83.83 0 0 1 0-1.66h.17a.83.83 0 0 1 0 1.66zm-42.66 32.87h-.17a.83.83 0 0 1 0-1.66h.17a.83.83 0 0 1 0 1.66zm14.22 0h-.17a.83.83 0 0 1 0-1.66h.17a.83.83 0 0 1 0 1.66zm-14.22 16.78h-.17a.83.83 0 0 1 0-1.65h.17a.83.83 0 1 1 0 1.65zm14.22 0h-.17a.83.83 0 1 1 0-1.65h.17a.83.83 0 1 1 0 1.65zm-7.59-8.39H238a.83.83 0 1 1 0-1.66h.17a.83.83 0 1 1 0 1.66zm14.22 0h-.17a.83.83 0 1 1 0-1.66h.17a.83.83 0 1 1 0 1.66zm-14.22 16.78H238a.83.83 0 1 1 0-1.65h.17a.83.83 0 1 1 0 1.65zm14.22 0h-.17a.83.83 0 1 1 0-1.65h.17a.83.83 0 1 1 0 1.65zm-20.85-41.95h-.17a.83.83 0 0 1 0-1.66h.17a.83.83 0 0 1 0 1.66zm14.22 0h-.17a.83.83 0 1 1 0-1.66h.17a.83.83 0 0 1 0 1.66z"/><path d="M231.54 234.93h-.17a.83.83 0 0 1 0-1.66h.17a.83.83 0 0 1 0 1.66zm14.22 0h-.17a.83.83 0 0 1 0-1.66h.17a.83.83 0 0 1 0 1.66zm-7.59-25.17H238a.83.83 0 1 1 0-1.66h.17a.83.83 0 0 1 0 1.66zm14.22 0h-.17a.83.83 0 1 1 0-1.66h.17a.83.83 0 0 1 0 1.66zm14.21 0h-.16a.83.83 0 0 1 0-1.66h.16a.83.83 0 1 1 0 1.66zm-28.43 16.78H238a.83.83 0 1 1 0-1.66h.17a.83.83 0 1 1 0 1.66zm14.22 0h-.17a.83.83 0 1 1 0-1.66h.17a.83.83 0 0 1 0 1.66zm-35.06 8.39h-.17a.83.83 0 0 1 0-1.66h.17a.83.83 0 0 1 0 1.66z"/><path d="M231.54 234.93h-.17a.83.83 0 0 1 0-1.66h.17a.83.83 0 0 1 0 1.66zm-14.21 16.78h-.17a.83.83 0 1 1 0-1.65h.17a.83.83 0 0 1 0 1.65zm14.21 0h-.17a.83.83 0 0 1 0-1.65h.17a.83.83 0 1 1 0 1.65zm-7.54-8.39h-.17a.83.83 0 1 1 0-1.66h.17a.83.83 0 0 1 0 1.66zm14.17 0H238a.83.83 0 1 1 0-1.66h.17a.83.83 0 1 1 0 1.66zM224 260.1h-.17a.83.83 0 1 1 0-1.65h.17a.83.83 0 1 1 0 1.65zm14.17 0H238a.83.83 0 1 1 0-1.65h.17a.83.83 0 1 1 0 1.65zm-20.84-41.95h-.17a.83.83 0 0 1 0-1.66h.17a.83.83 0 0 1 0 1.66zm14.21 0h-.17a.83.83 0 0 1 0-1.66h.17a.83.83 0 0 1 0 1.66zm-14.21 16.78h-.17a.83.83 0 0 1 0-1.66h.17a.83.83 0 0 1 0 1.66z"/><path d="M231.54 234.93h-.17a.83.83 0 0 1 0-1.66h.17a.83.83 0 0 1 0 1.66zM224 209.76h-.17a.83.83 0 1 1 0-1.66h.17a.83.83 0 1 1 0 1.66zm14.17 0H238a.83.83 0 1 1 0-1.66h.17a.83.83 0 0 1 0 1.66zM224 226.54h-.17a.83.83 0 1 1 0-1.66h.17a.83.83 0 1 1 0 1.66zm14.17 0H238a.83.83 0 1 1 0-1.66h.17a.83.83 0 1 1 0 1.66z"/></g></svg>